# xmcd
# 
# Track frame offsets:
#     150
#     10416
#     21400
#     31484
#     41567
#     51674
#     61636
#     72035
#     81589
#     91350
#     101160
#     111552
#     122092
#     130750
#     143369
#     155180
#     166302
#     176828
# 
# Disc length: 2496
# 
# Revision: 0
# Processed by: cddbd v1.5.2PL0 Copyright (c) Steve Scherf et al.
# Submitted via: fre:ac v1.0.17
# 
DISCID=0309be12
DTITLE=FATS DOMINO - Face 2 Face
DYEAR=1950
DGENRE=Blues
TTITLE0=Blue Monday
TTITLE1=Ain't it a shame
TTITLE2=Oh Ba-a-by
TTITLE3=La La
TTITLE4=Troubles on my own
TTITLE5=What's wrong
TTITLE6=Poor me
TTITLE7=My blue Heaven
TTITLE8=Don't know what's wrong
TTITLE9=Ida Jane
TTITLE10=When my dreame boat comes home
TTITLE11=Blueberry hill
TTITLE12=I'm in love again
TTITLE13=Bo weevil
TTITLE14=The fat man
TTITLE15=Little bee
TTITLE16=No no baby
TTITLE17=Reeling and rocking
EXTD=
EXTT0=
EXTT1=
EXTT2=
EXTT3=
EXTT4=
EXTT5=
EXTT6=
EXTT7=
EXTT8=
EXTT9=
EXTT10=
EXTT11=
EXTT12=
EXTT13=
EXTT14=
EXTT15=
EXTT16=
EXTT17=His first hits
PLAYORDER=
